Motion_pl04
version=1
nRows=16
nColumns=43
inDegrees=yes
endheader
time	pelvis_tilt	pelvis_list	pelvis_rotation	pelvis_tx	pelvis_ty	pelvis_tz	hip_flexion_r	hip_adduction_r	hip_rotation_r	knee_angle_r	ankle_angle_r	subtalar_angle_r	mtp_angle_r	hip_flexion_l	hip_adduction_l	hip_rotation_l	knee_angle_l	ankle_angle_l	subtalar_angle_l	mtp_angle_l	lumbar_extension	lumbar_bending	lumbar_rotation	neck_flexion	neck_lateral_bending	neck_rotation	arm_flex_r	arm_add_r	arm_rot_r	elbow_flex_r	pro_sup_r	wrist_flex_r	wrist_dev_r	hand_finger_flex_r	arm_flex_l	arm_add_l	arm_rot_l	elbow_flex_l	pro_sup_l	wrist_flex_l	wrist_dev_l	hand_finger_flex_l
      1.15750000	      2.84848395	     -8.83147458	     85.73047100	      0.02548515	      0.51200495	      0.51593742	     98.47648763	     -1.19542631	     -5.41921279	   -119.87682524	     13.42707351	      8.28423926	     21.25832794	     94.23692131	    -13.41363395	      1.87402954	   -124.77148940	     19.39400020	      2.79765568	     35.60020319	    -65.16717656	      0.54174747	      1.27608653	     25.33789730	     -7.29967211	      8.05045439	     76.07715223	    -36.34825675	     25.39816491	     72.82801348	    132.70050137	     -6.15702897	     -3.35647011	    -30.38487093	     55.15757191	    -50.14888921	      2.14110378	     83.33383716	    122.26696299	    -16.60598768	     -1.70462610	     20.40306794
      1.16000000	      2.86270724	     -9.16852072	     85.69370896	      0.02547792	      0.50942018	      0.51531410	     99.04436549	     -1.22931530	     -5.50777368	   -120.15708580	     13.60325276	      8.23540912	     21.25461094	     94.67724926	    -13.57963142	      1.75254248	   -125.01924912	     19.92834671	      2.63399446	     35.57325582	    -65.15247263	      0.56746350	      1.25122084	     25.49016814	     -7.45527254	      8.08760593	     77.32559920	    -35.73369142	     25.83574290	     72.74696356	    132.78960845	     -5.91260969	     -3.37984923	    -30.26864588	     56.31292576	    -50.32670278	      2.59928933	     83.51666521	    122.33323780	    -16.49933849	     -1.74290559	     20.50788206
      1.16250000	      2.83876832	     -9.43943166	     85.63219246	      0.02532474	      0.50693132	      0.51462248	     99.56818402	     -1.30459569	     -5.58966136	   -120.46126563	     13.70404048	      8.10865891	     21.24713144	     95.02258755	    -13.74669051	      1.57881204	   -125.28085560	     20.35632187	      2.46887025	     35.49950912	    -65.16402090	      0.57706864	      1.19645511	     25.50298758	     -7.62040530	      8.17235362	     78.63859174	    -35.16686890	     26.46066334	     72.60630916	    132.91199995	     -5.61741502	     -3.33103622	    -30.16321939	     57.46471999	    -50.53213492	      3.17998937	     83.66464006	    122.39185957	    -16.38585602	     -1.69111143	     20.60894226
      1.16500000	      2.82054622	     -9.70211806	     85.57297436	      0.02523866	      0.50459497	      0.51398707	    100.05061195	     -1.32886213	     -5.66849392	   -120.71542702	     13.83678328	      7.94251410	     21.26176049	     95.34305021	    -13.87804499	      1.44337763	   -125.51042972	     20.80654885	      2.28615265	     35.42685221	    -65.19215128	      0.58680776	      1.13549617	     25.54658299	     -7.76693342	      8.22296187	     79.88441116	    -34.54442093	     26.99683131	     72.47844898	    132.99505036	     -5.37210740	     -3.24580248	    -30.10517454	     58.61061562	    -50.71154142	      3.68809050	     83.82058518	    122.44878314	    -16.28071385	     -1.62450881	     20.68154040
      1.16750000	      2.79548490	     -9.95795446	     85.48151878	      0.02512697	      0.50229525	      0.51332061	    100.52252855	     -1.38167163	     -5.78357699	   -120.97333743	     13.95477442	      7.73151476	     21.29202832	     95.63494745	    -14.03819808	      1.30334308	   -125.74375945	     21.26106595	      2.11014227	     35.32406268	    -65.21508053	      0.57140780	      1.08434203	     25.59361139	     -7.90438930	      8.28104318	     81.11112333	    -33.93398614	     27.55139431	     72.34978660	    133.04680172	     -5.13385054	     -3.13841843	    -30.08491563	     59.72273951	    -50.94022895	      4.26982316	     83.99924694	    122.51077804	    -16.15991342	     -1.54327533	     20.75471472
      1.17000000	      2.79973565	    -10.23917535	     85.39169886	      0.02494482	      0.50022223	      0.51267147	    100.97373200	     -1.45269456	     -5.92738965	   -121.17955880	     14.09778841	      7.63161153	     21.32411927	     95.93101420	    -14.18560612	      1.19893515	   -125.94144581	     21.63004829	      2.00260310	     35.29882581	    -65.22808130	      0.57273823	      1.08681745	     25.74773060	     -7.95851964	      8.27592710	     82.17188241	    -33.20235210	     27.76236536	     72.18956354	    133.06122597	     -4.98943511	     -3.06130516	    -30.06309834	     60.74682490	    -50.87253267	      4.52196792	     84.12451801	    122.56065322	    -16.08476873	     -1.52765784	     20.77626778
      1.17250000	      2.79716957	    -10.57546924	     85.26871029	      0.02503967	      0.49809755	      0.51211978	    101.49565430	     -1.44199248	     -6.06557416	   -121.37944013	     14.22969401	      7.46757313	     21.36462123	     96.29231415	    -14.35916767	      1.14303242	   -126.14885313	     22.17189915	      1.84889874	     35.24734849	    -65.19205673	      0.54504404	      1.07776294	     25.83717715	     -8.09478473	      8.31832443	     83.34778263	    -32.54954853	     28.25772171	     72.06927116	    133.10285899	     -4.73963530	     -3.03305475	    -30.02451515	     61.82946288	    -51.17975900	      5.11718824	     84.30592541	    122.69463171	    -15.86430054	     -1.53579758	     20.85275471
      1.17500000	      2.81024200	    -10.86129446	     85.11966072	      0.02518815	      0.49576054	      0.51165225	    101.98678434	     -1.40026176	     -6.21323924	   -121.58383599	     14.27731959	      7.30714889	     21.41005771	     96.64119702	    -14.56997879	      1.13316767	   -126.38167188	     22.65435835	      1.76716640	     35.13912629	    -65.15454667	      0.46580567	      1.04349911	     25.90738620	     -8.20801339	      8.39474998	     84.44755540	    -31.95759900	     28.78430220	     71.99389915	    133.08545400	     -4.53444475	     -3.00409460	    -30.03803634	     62.95839300	    -51.52471842	      5.77395518	     84.56076292	    122.80733793	    -15.65997935	     -1.52409474	     20.92659202
      1.17750000	      2.80420294	    -11.15087573	     84.89911477	      0.02538877	      0.49363764	      0.51111756	    102.49367510	     -1.40778034	     -6.43313748	   -121.80779807	     14.29164801	      7.18891175	     21.48232669	     96.94595321	    -14.84322715	      1.12833843	   -126.61327533	     23.12178423	      1.80605918	     34.93291894	    -65.13360112	      0.32119880	      1.08845803	     26.00926881	     -8.24566246	      8.47053160	     85.51991060	    -31.43063681	     29.27975398	     71.93416297	    132.94264757	     -4.42022429	     -2.96568747	    -30.14639232	     64.10358222	    -51.88075928	      6.56738568	     84.82961200	    122.86228866	    -15.48891075	     -1.46524379	     20.99194534
      1.18000000	      2.82368891	    -11.46562137	     84.71660475	      0.02561667	      0.49166131	      0.51068183	    102.98159704	     -1.39248574	     -6.60187409	   -121.98633213	     14.35082579	      7.21088292	     21.56217165	     97.28485047	    -15.07928060	      1.17406166	   -126.80876312	     23.60950011	      1.87534034	     34.74198788	    -65.09773519	      0.20288466	      1.14414029	     26.18000513	     -8.25736672	      8.48037769	     86.52849953	    -30.86316866	     29.66411788	     71.85605009	    132.76916698	     -4.34826846	     -2.96682736	    -30.25319139	     65.26502986	    -52.09991441	      7.24792817	     85.04627486	    122.88218708	    -15.35485892	     -1.43721891	     21.03183667
      1.18250000	      2.85003916	    -11.76402567	     84.53503271	      0.02578927	      0.48978701	      0.51022754	    103.43435923	     -1.38351853	     -6.74552005	   -122.17033721	     14.42454710	      7.34348081	     21.65228787	     97.60533697	    -15.32896575	      1.22541872	   -127.00801070	     24.07032221	      2.03589608	     34.51717377	    -65.08058195	      0.08596486	      1.22679237	     26.35695734	     -8.22962639	      8.48969024	     87.51947913	    -30.35633679	     30.05384864	     71.80126787	    132.53964888	     -4.32115730	     -3.01347246	    -30.38450973	     66.45226601	    -52.33136502	      8.02248749	     85.26475639	    122.86668244	    -15.22222846	     -1.41961291	     21.05529838
      1.18500000	      2.87461578	    -12.03078181	     84.38639789	      0.02596562	      0.48801987	      0.50976702	    103.83791518	     -1.38040505	     -6.84373619	   -122.34903165	     14.54385754	      7.56548112	     21.74046530	     97.89761699	    -15.52823278	      1.30528385	   -127.19277088	     24.52955354	      2.21677052	     34.31111067	    -65.09425227	     -0.01882482	      1.29460181	     26.55464309	     -8.18877202	      8.47234795	     88.47373750	    -29.87156728	     30.42430565	     71.76600895	    132.30410862	     -4.32968534	     -3.09231445	    -30.51059626	     67.65131323	    -52.51405366	      8.78327780	     85.48363052	    122.82405280	    -15.10792360	     -1.42324501	     21.05127405
      1.18750000	      2.86359250	    -12.11093825	     84.24936761	      0.02621596	      0.48674694	      0.50922536	    104.01172103	     -1.34804602	     -6.82873830	   -122.52829148	     14.74180911	      7.99707600	     21.89946001	     97.95782651	    -15.75805516	      1.36691716	   -127.37222346	     24.96227987	      2.78592988	     33.69697822	    -65.30171384	     -0.21876021	      1.41136528	     26.71022908	     -7.85814949	      8.39896321	     89.40037956	    -29.63390364	     30.88986199	     71.75605985	    131.54258710	     -4.67919863	     -3.15751489	    -30.94502758	     69.29731926	    -52.59454553	     10.12479944	     85.53473279	    122.37846713	    -15.28062688	     -1.19193319	     20.85286157
      1.19000000	      2.90001762	    -12.39361197	     84.18048707	      0.02608179	      0.48500468	      0.50864749	    104.39301497	     -1.40005697	     -6.87283603	   -122.71215268	     14.90584432	      8.18217917	     21.94950262	     98.26713059	    -15.85128116	      1.41683548	   -127.54968015	     25.42953457	      2.76203996	     33.60250897	    -65.29058512	     -0.21215251	      1.44956753	     26.93555145	     -7.93056657	      8.31427793	     90.30861356	    -29.15158637	     31.21796076	     71.77126345	    131.48755266	     -4.60050806	     -3.25725415	    -30.95673261	     70.26653993	    -52.71939202	     10.64852168	     85.80935873	    122.39441050	    -15.17794434	     -1.30733911	     20.85199131
      1.19250000	      2.93903898	    -12.52071114	     84.14060861	      0.02591980	      0.48357749	      0.50797837	    104.58738009	     -1.45043895	     -6.83846012	   -122.91121889	     15.15166530	      8.61579904	     22.01866816	     98.42419252	    -15.91183599	      1.53171253	   -127.74225761	     25.76990586	      3.04051483	     33.45578877	    -65.44234827	     -0.22831445	      1.51118585	     27.19032287	     -7.82446527	      8.32503202	     91.24448985	    -28.79399177	     31.61646023	     71.75376101	    131.32930658	     -4.70194245	     -3.38890353	    -31.07411082	     71.49462701	    -52.85854273	     11.52931463	     86.02587433	    122.31870036	    -15.09822389	     -1.37479116	     20.78777017
      1.19500000	      2.93350114	    -12.46253809	     84.13401096	      0.02589081	      0.48264752	      0.50720055	    104.55991752	     -1.51206897	     -6.74380171	   -123.11107277	     15.45940905	      9.15659748	     22.05767529	     98.33814748	    -15.98750688	      1.58349201	   -127.92258694	     26.11305003	      3.54287487	     33.13214893	    -65.76990552	     -0.33239410	      1.58676001	     27.33626831	     -7.48348275	      8.20194789	     92.08928939	    -28.62240739	     32.04980805	     71.75830822	    130.80898842	     -5.17219412	     -3.45255376	    -31.40847666	     73.11390621	    -52.78205999	     12.83533658	     86.01963573	    121.86007860	    -15.38423831	     -1.21301500	     20.49348366
